<svg width="428" height="501" viewBox="0 0 428 501" fill="none" xmlns="http://www.w3.org/2000/svg">
<circle cx="214" cy="201" r="300" fill="#5A95CB"/>
<rect x="57" y="173.077" width="500.307" height="236.325" rx="118.163" transform="rotate(-32.129 57 173.077)" fill="#6F4DBE"/>
<circle cx="7.5" cy="329.5" r="4.5" fill="#D9D9D9" fill-opacity="0.2"/>
<circle cx="7.5" cy="352.5" r="4.5" fill="#D9D9D9" fill-opacity="0.2"/>
<ellipse cx="7.5" cy="373" rx="4.5" ry="5" fill="#D9D9D9" fill-opacity="0.2"/>
<circle cx="7.5" cy="393.5" r="4.5" fill="#D9D9D9" fill-opacity="0.2"/>
<circle cx="30.5" cy="329.5" r="4.5" fill="#D9D9D9" fill-opacity="0.2"/>
<circle cx="30.5" cy="352.5" r="4.5" fill="#D9D9D9" fill-opacity="0.2"/>
<ellipse cx="30.5" cy="373" rx="4.5" ry="5" fill="#D9D9D9" fill-opacity="0.2"/>
<circle cx="30.5" cy="393.5" r="4.5" fill="#D9D9D9" fill-opacity="0.2"/>
<circle cx="52.5" cy="329.5" r="4.5" fill="#D9D9D9" fill-opacity="0.2"/>
<circle cx="52.5" cy="352.5" r="4.5" fill="#D9D9D9" fill-opacity="0.2"/>
<ellipse cx="52.5" cy="373" rx="4.5" ry="5" fill="#D9D9D9" fill-opacity="0.2"/>
<circle cx="52.5" cy="393.5" r="4.5" fill="#D9D9D9" fill-opacity="0.2"/>
<circle cx="380.5" cy="10.5" r="4.5" fill="#D9D9D9" fill-opacity="0.2"/>
<circle cx="380.5" cy="33.5" r="4.5" fill="#D9D9D9" fill-opacity="0.2"/>
<ellipse cx="380.5" cy="54" rx="4.5" ry="5" fill="#D9D9D9" fill-opacity="0.2"/>
<circle cx="380.5" cy="74.5" r="4.5" fill="#D9D9D9" fill-opacity="0.2"/>
<circle cx="404.5" cy="10.5" r="4.5" fill="#D9D9D9" fill-opacity="0.2"/>
<circle cx="404.5" cy="33.5" r="4.5" fill="#D9D9D9" fill-opacity="0.2"/>
<ellipse cx="404.5" cy="54" rx="4.5" ry="5" fill="#D9D9D9" fill-opacity="0.2"/>
<circle cx="404.5" cy="74.5" r="4.5" fill="#D9D9D9" fill-opacity="0.2"/>
<circle cx="427.5" cy="10.5" r="4.5" fill="#D9D9D9" fill-opacity="0.2"/>
<circle cx="427.5" cy="33.5" r="4.5" fill="#D9D9D9" fill-opacity="0.2"/>
<ellipse cx="427.5" cy="54" rx="4.5" ry="5" fill="#D9D9D9" fill-opacity="0.2"/>
<circle cx="427.5" cy="74.5" r="4.5" fill="#D9D9D9" fill-opacity="0.2"/>
</svg>
