<svg width="126" height="126" viewBox="0 0 126 126" fill="none" xmlns="http://www.w3.org/2000/svg">
<circle cx="63" cy="63" r="61.5" stroke="white" stroke-width="3"/>
<path d="M20.7884 63H14.8565L23.8949 36.8182H31.0284L40.054 63H34.1222L27.5639 42.8011H27.3594L20.7884 63ZM20.4176 52.7088H34.429V57.0298H20.4176V52.7088ZM42.924 63V59.7145L55.9893 41.3821H42.8984V36.8182H62.9439V40.1037L49.8658 58.4361H62.9695V63H42.924Z" fill="white"/>
<path d="M56.9043 66.7812V81H55.0488V66.7812H56.9043ZM61.4746 66.7812V68.3242H50.4883V66.7812H61.4746ZM63.584 66.7812H68.291C69.3587 66.7812 70.2604 66.944 70.9961 67.2695C71.7383 67.5951 72.3014 68.0768 72.6855 68.7148C73.0762 69.3464 73.2715 70.1243 73.2715 71.0488C73.2715 71.6999 73.138 72.2956 72.8711 72.8359C72.6107 73.3698 72.2331 73.8255 71.7383 74.2031C71.25 74.5742 70.6641 74.8509 69.9805 75.0332L69.4531 75.2383H65.0293L65.0098 73.7051H68.3496C69.0267 73.7051 69.5898 73.5879 70.0391 73.3535C70.4883 73.1126 70.8268 72.7904 71.0547 72.3867C71.2826 71.9831 71.3965 71.5371 71.3965 71.0488C71.3965 70.502 71.2891 70.0234 71.0742 69.6133C70.8594 69.2031 70.5208 68.8874 70.0586 68.666C69.6029 68.4382 69.0137 68.3242 68.291 68.3242H65.4688V81H63.584V66.7812ZM71.8945 81L68.4375 74.5547L70.4004 74.5449L73.9062 80.8828V81H71.8945ZM81.1719 68.041L76.4648 81H74.541L79.9609 66.7812H81.2012L81.1719 68.041ZM85.1172 81L80.4004 68.041L80.3711 66.7812H81.6113L87.0508 81H85.1172ZM84.873 75.7363V77.2793H76.8848V75.7363H84.873ZM99.8926 66.7812V81H97.998L90.8398 70.0332V81H88.9551V66.7812H90.8398L98.0273 77.7773V66.7812H99.8926ZM110.811 77.4062C110.811 77.0742 110.758 76.7812 110.654 76.5273C110.557 76.2669 110.381 76.0326 110.127 75.8242C109.88 75.6159 109.535 75.4173 109.092 75.2285C108.656 75.0397 108.102 74.8477 107.432 74.6523C106.729 74.444 106.094 74.2129 105.527 73.959C104.961 73.6986 104.476 73.4023 104.072 73.0703C103.669 72.7383 103.359 72.3574 103.145 71.9277C102.93 71.498 102.822 71.0065 102.822 70.4531C102.822 69.8997 102.936 69.3887 103.164 68.9199C103.392 68.4512 103.717 68.0443 104.141 67.6992C104.57 67.3477 105.081 67.0742 105.674 66.8789C106.266 66.6836 106.927 66.5859 107.656 66.5859C108.724 66.5859 109.629 66.791 110.371 67.2012C111.12 67.6048 111.689 68.1354 112.08 68.793C112.471 69.444 112.666 70.1406 112.666 70.8828H110.791C110.791 70.349 110.677 69.877 110.449 69.4668C110.221 69.0501 109.876 68.7246 109.414 68.4902C108.952 68.2493 108.366 68.1289 107.656 68.1289C106.986 68.1289 106.432 68.2298 105.996 68.4316C105.56 68.6335 105.234 68.9069 105.02 69.252C104.811 69.597 104.707 69.9909 104.707 70.4336C104.707 70.7331 104.769 71.0065 104.893 71.2539C105.023 71.4948 105.221 71.7194 105.488 71.9277C105.762 72.1361 106.107 72.3281 106.523 72.5039C106.947 72.6797 107.451 72.849 108.037 73.0117C108.844 73.2396 109.541 73.4935 110.127 73.7734C110.713 74.0534 111.195 74.3691 111.572 74.7207C111.956 75.0658 112.24 75.4596 112.422 75.9023C112.611 76.3385 112.705 76.8333 112.705 77.3867C112.705 77.9661 112.588 78.4902 112.354 78.959C112.119 79.4277 111.784 79.8281 111.348 80.1602C110.911 80.4922 110.387 80.7493 109.775 80.9316C109.17 81.1074 108.493 81.1953 107.744 81.1953C107.087 81.1953 106.439 81.1042 105.801 80.9219C105.169 80.7396 104.593 80.4661 104.072 80.1016C103.558 79.737 103.145 79.2878 102.832 78.7539C102.526 78.2135 102.373 77.5885 102.373 76.8789H104.248C104.248 77.3672 104.342 77.7871 104.531 78.1387C104.72 78.4837 104.977 78.7702 105.303 78.998C105.635 79.2259 106.009 79.3952 106.426 79.5059C106.849 79.61 107.288 79.6621 107.744 79.6621C108.402 79.6621 108.958 79.571 109.414 79.3887C109.87 79.2064 110.215 78.946 110.449 78.6074C110.69 78.2689 110.811 77.8685 110.811 77.4062Z" fill="white"/>
</svg>
